#N canvas 0 64 1470 822 12;
#X obj 588 146 soundfiler;
#X obj 698 186 s sampleLength1;
#X obj 608 284 *~;
#X obj 677 261 r sampleLength1;
#X obj 585 186 expr 44100/$f1;
#X obj 608 243 phasor~;
#X obj 608 319 tabread4~ table-1;
#X obj 433 717 +~;
#X floatatom 695 161 17 0 0 0 - - - 0;
#X obj 585 96 loadbang;
#N canvas 0 22 450 278 (subpatch) 0;
#X array table-1 3.60435e+06 float 2;
#X coords 0 1 3.60435e+06 -1 200 140 1;
#X restore 861 668 graph;
#X obj 555 232 *~;
#X msg 587 118 read -resize BasicMusic.wav table-1;
#X obj 62 599 r pdHighNotes;
#X obj 162 654 print hinote;
#X obj 29 656 sel 1;
#X obj 104 747 readsf~;
#X msg 80 704 open HighNotes.wav \, 1;
#X obj 117 509 sel 1;
#X obj 192 600 readsf~;
#X obj 178 465 r pdHigh2;
#X msg 168 557 open High2.wav \, 1;
#X obj 134 826 sel 1;
#X obj 157 889 readsf~;
#X obj 1092 180 soundfiler;
#X obj 1129 324 *~;
#X obj 1092 210 expr 44100/$f1;
#X obj 1131 294 phasor~;
#X floatatom 1207 197 17 0 0 0 - - - 0;
#X obj 1088 113 loadbang;
#X obj 1076 272 *~;
#N canvas 0 22 450 278 (subpatch) 0;
#X array table-2 3.53881e+06 float 2;
#X coords 0 1 3.53881e+06 -1 200 140 1;
#X restore 854 828 graph;
#X msg 1089 149 read -resize DrumTrack.wav table-2;
#X obj 1130 357 tabread4~ table-2;
#X obj 1015 363 sel 0 1;
#X obj 1052 537 *~;
#X obj 606 698 r pdOnoff;
#X obj 637 742 sel 0 1;
#X msg 689 782 0;
#X obj 1208 227 s sampleLength2;
#X obj 1190 316 r sampleLength2;
#X obj 542 1104 pp.doppler~;
#X obj 547 1153 pp.pan~;
#A saved empty_slot \; empty_slot \; empty_slot \; empty_slot \; empty_slot \; empty_slot \; empty_slot \; empty_slot \; empty_slot \; empty_slot \; empty_slot \; empty_slot \; empty_slot \; empty_slot \; empty_slot \; empty_slot \; empty_slot \; empty_slot \; empty_slot \; empty_slot \; empty_slot \;;
#X obj 676 985 r pdY;
#X obj 589 989 r pdX;
#X obj 1019 326 r pdVu;
#X obj 590 1047 change_mx;
#X obj 676 1045 change_mx;
#X obj 223 522 print hinote2;
#X obj 544 1202 dac~ 1 2;
#X obj 501 607 *~ 0.2;
#X msg 958 473 0;
#X msg 1037 407 0.2;
#X obj 435 838 r clip;
#X obj 451 1038 clip~ -1 1;
#X obj 420 903 *~;
#X obj 437 871 expr if($f1 >1 \, $f1 \, 1 );
#X obj 193 384 sel 1;
#X obj 268 475 readsf~;
#X obj 226 327 r pdTriangle;
#X obj 248 360 print Triangle;
#X msg 244 432 open Triangle.wav \, 1;
#X obj 430 611 *~ 0.2;
#X obj 455 191 r pdRate;
#X obj 459 220 loadbang;
#X msg 466 256 1;
#X obj 962 254 r pdRate;
#X obj 965 280 loadbang;
#X msg 972 316 1;
#X obj 167 769 r pdFlu;
#X msg 148 857 open flute.wav \, 1;
#X obj 188 805 print flute;
#X obj 187 208 *~ 0.2;
#X obj 187 229 dac~ 1 2;
#X obj 187 132 *~;
#X obj 187 167 tabread4~ table-1;
#X obj 177 100 lop~ 1;
#X obj 223 128 r sampleLength1;
#X obj 178 72 r pdScratch;
#X text 349 170 Speed variation of basic mnusic;
#X text 173 53 Scratched effect;
#X text 61 283 Sound effect;
#X text 605 674 Audio on/off;
#X text 585 966 Audio spatialization;
#X obj 429 802 *~;
#X msg 616 786 2;
#X obj 416 363 sel 1;
#X obj 408 439 readsf~;
#X obj 444 347 print Triangle;
#X obj 416 321 r pdTap1.1;
#X msg 415 396 open Tap1.1.wav \, 1;
#X obj 197 991 sel 1;
#X obj 272 1082 readsf~;
#X obj 230 934 r pdTap2.1;
#X msg 248 1039 open Tap2.1.wav \, 1;
#X obj 404 473 *~ 0.2;
#X obj 322 978 *~ 0.05;
#X text 493 833 Audio distortion only distorted when exceed certin value;
#X text 848 173 Speed variation of drum track defualt with playing rate 1 \, receive higher playrate according to button pressed time on ino, f 30;
#X text 723 1158 Library on https://github.com/solipd;
#X connect 0 0 8 0;
#X connect 0 0 4 0;
#X connect 2 0 6 0;
#X connect 3 0 2 1;
#X connect 4 0 11 1;
#X connect 5 0 2 0;
#X connect 6 0 50 0;
#X connect 7 0 84 0;
#X connect 8 0 1 0;
#X connect 9 0 12 0;
#X connect 11 0 5 0;
#X connect 12 0 0 0;
#X connect 13 0 15 0;
#X connect 13 0 14 0;
#X connect 15 0 17 0;
#X connect 16 0 7 0;
#X connect 17 0 16 0;
#X connect 18 0 21 0;
#X connect 19 0 7 0;
#X connect 20 0 18 0;
#X connect 20 0 48 0;
#X connect 21 0 19 0;
#X connect 22 0 70 0;
#X connect 23 0 7 0;
#X connect 24 0 28 0;
#X connect 24 0 26 0;
#X connect 25 0 33 0;
#X connect 26 0 30 1;
#X connect 27 0 25 0;
#X connect 28 0 39 0;
#X connect 29 0 32 0;
#X connect 30 0 27 0;
#X connect 32 0 24 0;
#X connect 33 0 35 1;
#X connect 34 0 51 0;
#X connect 34 1 52 0;
#X connect 34 2 51 0;
#X connect 35 0 7 1;
#X connect 36 0 37 0;
#X connect 37 0 85 0;
#X connect 37 1 38 0;
#X connect 37 2 38 0;
#X connect 38 0 84 1;
#X connect 40 0 25 1;
#X connect 41 0 42 0;
#X connect 41 1 42 1;
#X connect 42 0 49 0;
#X connect 42 1 49 1;
#X connect 43 0 47 0;
#X connect 44 0 46 0;
#X connect 45 0 34 0;
#X connect 46 0 41 1;
#X connect 47 0 41 2;
#X connect 50 0 7 1;
#X connect 51 0 35 0;
#X connect 52 0 35 0;
#X connect 53 0 56 0;
#X connect 54 0 41 0;
#X connect 55 0 54 0;
#X connect 56 0 55 1;
#X connect 57 0 61 0;
#X connect 58 0 62 0;
#X connect 59 0 57 0;
#X connect 59 0 60 0;
#X connect 61 0 58 0;
#X connect 62 0 7 0;
#X connect 63 0 11 0;
#X connect 64 0 65 0;
#X connect 65 0 11 0;
#X connect 66 0 30 0;
#X connect 67 0 68 0;
#X connect 68 0 30 0;
#X connect 69 0 22 0;
#X connect 69 0 71 0;
#X connect 70 0 23 0;
#X connect 72 0 73 0;
#X connect 72 0 73 1;
#X connect 74 0 75 0;
#X connect 75 0 72 0;
#X connect 76 0 74 0;
#X connect 77 0 74 1;
#X connect 78 0 76 0;
#X connect 84 0 55 0;
#X connect 85 0 84 1;
#X connect 86 0 90 0;
#X connect 87 0 95 0;
#X connect 89 0 86 0;
#X connect 89 0 88 0;
#X connect 90 0 87 0;
#X connect 91 0 94 0;
#X connect 92 0 96 0;
#X connect 93 0 91 0;
#X connect 94 0 92 0;
#X connect 95 0 7 0;
#X connect 96 0 7 0;
